<?xml version="1.0" encoding="utf-8"?>
<!-- Generator: Adobe Illustrator 28.0.0, SVG Export Plug-In . SVG Version: 6.00 Build 0)  -->
<svg version="1.1" id="Layer_1" xmlns="http://www.w3.org/2000/svg" xmlns:xlink="http://www.w3.org/1999/xlink" x="0px" y="0px"
	 viewBox="0 0 100 125" style="enable-background:new 0 0 100 125;" xml:space="preserve">
<style type="text/css">
	.st0{fill-rule:evenodd;clip-rule:evenodd;fill:#232D4B;}
	.st1{fill-rule:evenodd;clip-rule:evenodd;fill:#E57200;}
</style>
<path class="st0" d="M65.4,50c0-4.4-1.5-8.1-4.6-11.2c-3.1-3.1-6.8-4.6-11.2-4.6c-4.3,0-8.1,1.5-11.2,4.6c-3.1,3.1-4.6,6.8-4.6,11.2
	c0,4.4,1.5,8.1,4.6,11.2c3.1,3.1,6.8,4.6,11.2,4.6c4.4,0,8.1-1.5,11.2-4.6C63.9,58.1,65.4,54.4,65.4,50z M50,17.5
	c8.9,0,16.4,3.1,22.6,9.4c6.2,6.3,9.4,13.8,9.4,22.7c0,7.1-2.1,13.6-6.4,19.4l-20.2,34.9c-0.2,0.4-0.4,0.8-0.8,1.3l-0.2,0.3h-0.1
	c-1.2,1.4-2.6,2.1-4.4,2.1c-2,0-3.5-0.8-4.6-2.4l-0.1,0V105L24.4,68.8C20.1,63.1,18,56.7,18,49.5c0-8.8,3.1-16.4,9.4-22.6
	C33.6,20.6,41.1,17.5,50,17.5z"/>
<circle class="st1" cx="49.7" cy="50" r="15.8"/>
</svg>
