<svg xmlns="http://www.w3.org/2000/svg" height="48" viewBox="0 -960 960 960" width="48"><path d="M463.77-103.694q-74.923-3.23-140.816-33.875-65.892-30.645-114.736-81.169-48.844-50.524-76.992-117.686-28.148-67.163-28.148-143.562 0-78.168 29.722-146.906 29.721-68.739 80.562-119.814 50.84-51.074 119.697-80.645 68.856-29.571 147.068-29.571 143.604 0 249.029 92.86 105.425 92.86 124.574 231.986h-44.372q-13.435-87.346-67.449-156.879-54.014-69.533-137.448-103.429v18.5q0 34.441-23.513 59.547-23.514 25.106-58.324 25.106h-84.547v84.219q0 16.818-12.989 28.3Q412.098-565.23 395-565.23h-81.692V-480h99.768v123.154h-57.23L155.554-556.769q-4.246 19.173-6.438 38.374-2.193 19.201-2.193 38.402 0 134.049 90.924 230.309 90.923 96.261 225.923 102.145v43.845Zm382.537-18.307L709.461-258.078q-19.961 14.923-43.003 22.288-23.041 7.366-46.382 7.366-62.869 0-107.26-44.398-44.392-44.398-44.392-107.384t44.398-107.524q44.398-44.538 107.384-44.538t107.524 44.745q44.538 44.744 44.538 108.088 0 23.896-8.211 47.05-8.212 23.154-22.904 43.038l136.846 135.654-31.692 31.692ZM619.915-272.269q45.046 0 76.777-31.301 31.731-31.3 31.731-76.345 0-45.046-31.498-76.777-31.499-31.731-76.693-31.731-45.193 0-76.578 31.498-31.385 31.499-31.385 76.693 0 45.193 31.301 76.578 31.3 31.385 76.345 31.385Z"/></svg>