<svg xmlns="http://www.w3.org/2000/svg" height="48" viewBox="0 -960 960 960" width="48"><path d="M483.847-496.847q22.791-27.16 33.184-57.828 10.392-30.667 10.392-69.286 0-38.621-10.384-69.099-10.385-30.477-33.192-57.631 63.845-12.384 111.018 23.116 47.172 35.499 47.172 103.806 0 68.307-47.172 103.573-47.173 35.267-111.018 23.349Zm207.346 305.153v-73.114q0-43.393-20.318-80.525-20.317-37.132-72.065-61.82 134.11 17.554 186.495 53.302 52.385 35.747 52.385 89.206v72.951H691.193Zm92.498-266.114v-94.308h-94.307v-43.845h94.307v-94.307h43.846v94.307h94.307v43.845h-94.307v94.308h-43.846Zm-451.805-34.808q-57.481 0-94.048-36.834-36.567-36.833-36.567-94.489 0-57.656 36.546-94.319 36.545-36.664 94.415-36.664 57.134 0 94.239 36.641 37.106 36.641 37.106 94.298 0 57.656-37.106 94.511-37.105 36.856-94.585 36.856ZM38.656-191.694v-74.076q0-29.993 16.182-54.615 16.182-24.621 44.505-37.25 66.274-28.826 120.661-42.538 54.388-13.711 111.923-13.711 57.535 0 111.474 13.711 53.938 13.712 120.862 42.768 27.506 12.482 44.525 37.153t17.019 54.724v73.834H38.657Zm293.768-344.767q37.462 0 62.385-24.923 24.923-24.923 24.923-62.385 0-37.461-24.923-62.384-24.923-24.923-62.577-24.923-38.346 0-62.731 24.923-24.384 24.923-24.384 62.384 0 37.462 24.363 62.385 24.362 24.923 62.944 24.923ZM82.501-235.539h499.461v-29.944q0-15.878-9.019-30.044t-27.173-23.127q-62.461-29-110.54-40.193-48.078-11.192-103.129-11.192-55.333 0-103.178 11.192-47.845 11.193-111.537 40.193-16.923 8.346-25.904 22.823-8.98 14.477-8.98 30.299v29.993Zm249.923-388.23Zm0 388.23Z"/></svg>